:FULLY-SPECIFIED
:FORCE-ALL-JOINTS-BE-3DOF
:DEGREES
1121
root 0.918734 14.6701 -28.2686 361.509 5.34066 364.089
lfemur -29.7946 8.04581 -26.3511
ltibia 70.7291 0 0
lfoot -27.7482 25.4015 0
ltoes -20.4015 0 0
rfemur -59.0809 -9.14488 17.4915
rtibia 80.9236 0 0
rfoot -1.24576 -1.97348 0
rtoes -3.30906 0 0
lowerback 15.2934 0.269613 -10.9915
upperback -0.925017 -1.47929 1.71138
thorax -9.38064 -0.0975973 8.49237
lowerneck -4.4714 -2.33246 -4.02991
upperneck 4.70522 -3.10866 3.89167
head 2.3722 -1.51436 1.7407
lclavicle 3.92274e-014 -2.0703e-014 0
lhumerus 40.5345 -28.7857 68.2734
lradius 91.0861 0 0
lwrist 36.2208 0 0
lhand -31.0791 34.046 0
lfingers 7.12502 0 0
lthumb -4.35877 63.9214 0
rclavicle 3.92274e-014 -2.0703e-014 0
rhumerus -17.9685 26.8484 -91.2315
rradius 85.7883 0 0
rwrist -24.9176 0 0
rhand -20.0624 -45.3363 0
rfingers 7.12502 0 0
rthumb 6.27903 -75.2143 0
1122
root 0.879494 14.6894 -28.0601 361.073 6.91825 364.071
lfemur -28.1604 7.68801 -25.8628
ltibia 69.9856 0 0
lfoot -28.0626 25.3795 0
ltoes -20.5501 0 0
rfemur -58.326 -8.67203 16.0172
rtibia 77.1253 0 0
rfoot 1.82665 -1.70636 0
rtoes -1.37074 0 0
lowerback 15.1654 0.213366 -10.8449
upperback -0.891428 -1.51127 1.74135
thorax -9.26606 -0.127487 8.4421
lowerneck -4.32058 -2.76734 -4.37404
upperneck 4.98076 -3.69146 4.03606
head 2.45982 -1.80795 1.81211
lclavicle 3.95969e-014 -1.78812e-014 0
lhumerus 33.4993 -30.142 72.5177
lradius 92.5251 0 0
lwrist 36.5745 0 0
lhand -30.4252 33.3477 0
lfingers 7.12502 0 0
lthumb -3.72727 63.2297 0
rclavicle 3.95969e-014 -1.78812e-014 0
rhumerus -13.6034 26.5285 -89.0049
rradius 87.4854 0 0
rwrist -23.0654 0 0
rhand -20.6012 -44.692 0
rfingers 7.12502 0 0
rthumb 5.75879 -74.5854 0
1123
root 0.840255 14.7086 -27.8517 360.64 8.51314 364.03
lfemur -26.5166 7.3437 -25.3383
ltibia 69.2307 0 0
lfoot -28.3703 25.3589 0
ltoes -20.6759 0 0
rfemur -57.4395 -8.16878 14.4725
rtibia 73.1535 0 0
rfoot 5.02241 -1.43955 0
rtoes 0.608418 0 0
lowerback 15.0251 0.156482 -10.6734
upperback -0.858782 -1.53869 1.77702
thorax -9.14615 -0.156566 8.38239
lowerneck -4.16617 -3.20673 -4.72456
upperneck 5.26445 -4.2808 4.18111
head 2.55118 -2.10495 1.88407
lclavicle 3.98353e-014 -1.49627e-014 0
lhumerus 26.2555 -31.4872 76.8702
lradius 94.0043 0 0
lwrist 36.9287 0 0
lhand -29.7524 32.6315 0
lfingers 7.12502 0 0
lthumb -3.07751 62.5203 0
rclavicle 3.98353e-014 -1.49627e-014 0
rhumerus -9.14649 26.1722 -86.6762
rradius 89.2746 0 0
rwrist -21.1979 0 0
rhand -21.147 -44.0042 0
rfingers 7.12502 0 0
rthumb 5.23167 -73.9122 0
1124
root 0.801015 14.7279 -27.6432 360.214 10.1138 363.968
lfemur -24.8713 7.01246 -24.7839
ltibia 68.4686 0 0
lfoot -28.6689 25.3422 0
ltoes -20.7809 0 0
rfemur -56.4488 -7.64829 12.8819
rtibia 69.0706 0 0
rfoot 8.28929 -1.17262 0
rtoes 2.60201 0 0
lowerback 14.8755 0.100507 -10.4822
upperback -0.827325 -1.56082 1.81632
thorax -9.02301 -0.184144 8.31395
lowerneck -4.00926 -3.64831 -5.07978
upperneck 5.55266 -4.87367 4.3278
head 2.64535 -2.40381 1.95674
lclavicle 3.99186e-014 -1.19851e-014 0
lhumerus 18.8783 -32.8061 81.2801
lradius 95.5065 0 0
lwrist 37.2865 0 0
lhand -29.067 31.9092 0
lfingers 7.12502 0 0
lthumb -2.41565 61.8047 0
rclavicle 3.99186e-014 -1.19851e-014 0
rhumerus -4.63453 25.7789 -84.2679
rradius 91.124 0 0
rwrist -19.3246 0 0
rhand -21.6993 -43.2849 0
rfingers 7.12502 0 0
rthumb 4.69825 -73.2065 0
1125
root 0.761776 14.7471 -27.4348 359.795 11.7087 363.891
lfemur -23.2323 6.69387 -24.2058
ltibia 67.7035 0 0
lfoot -28.9558 25.3319 0
ltoes -20.8672 0 0
rfemur -55.3812 -7.12372 11.2698
rtibia 64.939 0 0
rfoot 11.5751 -0.90509 0
rtoes 4.58365 0 0
lowerback 14.7195 0.046985 -10.2767
upperback -0.7973 -1.57691 1.85713
thorax -8.89873 -0.209526 8.23748
lowerneck -3.85092 -4.08975 -5.43802
upperneck 5.84175 -5.46703 4.4771
head 2.74138 -2.70294 2.03027
lclavicle 3.98229e-014 -8.98598e-015 0
lhumerus 11.443 -34.0834 85.6962
lradius 97.0149 0 0
lwrist 37.6509 0 0
lhand -28.3754 31.1923 0
lfingers 7.12502 0 0
lthumb -1.74783 61.0944 0
rclavicle 3.98229e-014 -8.98598e-015 0
rhumerus -0.104102 25.348 -81.8023
rradius 93.0017 0 0
rwrist -17.4548 0 0
rhand -22.2576 -42.546 0
rfingers 7.12502 0 0
rthumb 4.15914 -72.4802 0
1126
root 0.722536 14.7664 -27.2263 359.387 13.2863 363.802
lfemur -21.6077 6.38752 -23.6104
ltibia 66.9397 0 0
lfoot -29.2287 25.3304 0
ltoes -20.9367 0 0
rfemur -54.2643 -6.60822 9.66075
rtibia 60.8212 0 0
rfoot 14.8275 -0.636521 0
rtoes 6.52694 0 0
lowerback 14.5602 -0.00253727 -10.0623
upperback -0.768955 -1.58622 1.89737
thorax -8.77541 -0.232022 8.15368
lowerneck -3.69225 -4.52873 -5.79759
upperneck 6.12809 -6.05788 4.62999
head 2.83832 -3.00078 2.10484
lclavicle 3.95241e-014 -6.00295e-015 0
lhumerus 4.02456 -35.3039 90.0676
lradius 98.5126 0 0
lwrist 38.0251 0 0
lhand -27.6841 30.4926 0
lfingers 7.12502 0 0
lthumb -1.08023 60.4011 0
rclavicle 3.95241e-014 -6.00295e-015 0
rhumerus 4.40819 24.879 -79.3016
rradius 94.8757 0 0
rwrist -15.598 0 0
rhand -22.8211 -41.7997 0
rfingers 7.12502 0 0
rthumb 3.61493 -71.7453 0
1127
root 0.683297 14.7856 -27.0179 358.99 14.8352 363.704
lfemur -20.0055 6.09298 -23.0037
ltibia 66.1814 0 0
lfoot -29.4851 25.3403 0
ltoes -20.9913 0 0
rfemur -53.1256 -6.11496 8.07913
rtibia 56.7794 0 0
rfoot 17.9944 -0.366453 0
rtoes 8.40551 0 0
lowerback 14.4005 -0.0465143 -9.84423
upperback -0.742532 -1.58802 1.93492
thorax -8.65514 -0.250937 8.06326
lowerneck -3.53431 -4.96292 -6.15683
upperneck 6.40805 -6.64318 4.78745
head 2.93522 -3.29574 2.18059
lclavicle 3.89983e-014 -3.07362e-015 0
lhumerus -3.30167 -36.4523 94.3433
lradius 99.9827 0 0
lwrist 38.4121 0 0
lhand -26.9994 29.8216 0
lfingers 7.12502 0 0
lthumb -0.418997 59.7363 0
rclavicle 3.89983e-014 -3.07362e-015 0
rhumerus 8.86573 24.3713 -76.7883
rradius 96.7142 0 0
rwrist -13.7636 0 0
rhand -23.3892 -41.0579 0
rfingers 7.12502 0 0
rthumb 3.06621 -71.0136 0
1128
root 0.644057 14.8049 -26.8094 358.609 16.3437 363.601
lfemur -18.4336 5.80984 -22.3921
ltibia 65.4326 0 0
lfoot -29.7225 25.3639 0
ltoes -21.0331 0 0
rfemur -51.9923 -5.65709 6.54943
rtibia 52.8761 0 0
rfoot 21.0235 -0.0944307 0
rtoes 10.1929 0 0
lowerback 14.2433 -0.0834005 -9.62787
upperback -0.718277 -1.58156 1.96769
thorax -8.54001 -0.265579 7.96692
lowerneck -3.37821 -5.39001 -6.51404
upperneck 6.67799 -7.21991 4.95045
head 3.03115 -3.58627 2.25769
lclavicle 3.82214e-014 -2.35605e-016 0
lhumerus -10.4606 -37.5135 98.4723
lradius 101.408 0 0
lwrist 38.815 0 0
lhand -26.3276 29.1909 0
lfingers 7.12502 0 0
lthumb 0.229708 59.1115 0
rclavicle 3.82214e-014 -2.35605e-016 0
rhumerus 13.2319 23.8243 -74.2846
rradius 98.4853 0 0
rwrist -11.9612 0 0
rhand -23.9614 -40.3326 0
rfingers 7.12502 0 0
rthumb 2.51359 -70.297 0
1129
root 0.604818 14.8241 -26.601 358.243 17.8004 363.497
lfemur -16.9001 5.53769 -21.7819
ltibia 64.6977 0 0
lfoot -29.9386 25.4038 0
ltoes -21.064 0 0
rfemur -50.892 -5.24776 5.09612
rtibia 49.1738 0 0
rfoot 23.8626 0.180001 0
rtoes 11.8629 0 0
lowerback 14.0917 -0.11165 -9.41853
upperback -0.696435 -1.56611 1.99358
thorax -8.43211 -0.275256 7.86535
lowerneck -3.22501 -5.80767 -6.86754
upperneck 6.93427 -7.78505 5.11995
head 3.12515 -3.87077 2.3363
lclavicle 3.71696e-014 2.47349e-015 0
lhumerus -17.3769 -38.4721 102.403
lradius 102.772 0 0
lwrist 39.2369 0 0
lhand -25.6752 28.6123 0
lfingers 7.12502 0 0
lthumb 0.859727 58.5382 0
rclavicle 3.71696e-014 2.47349e-015 0
rhumerus 17.4701 23.2375 -71.8129
rradius 100.157 0 0
rwrist -10.2 0 0
rhand -24.5371 -39.6358 0
rfingers 7.12502 0 0
rthumb 1.95766 -69.6073 0
